<?xml version="1.0" standalone="no"?>
<!DOCTYPE svg PUBLIC "-//W3C//DTD SVG 20010904//EN"
 "http://www.w3.org/TR/2001/REC-SVG-20010904/DTD/svg10.dtd">
<svg version="1.0" xmlns="http://www.w3.org/2000/svg"
 width="195.000000pt" height="195.000000pt" viewBox="0 0 195.000000 195.000000"
 preserveAspectRatio="xMidYMid meet">
<metadata>
Created by potrace 1.14, written by Peter Selinger 2001-2017
</metadata>
<g transform="translate(0.000000,195.000000) scale(0.100000,-0.100000)"
fill="#000000" stroke="none">
<path d="M945 1793 c28 -253 165 -520 359 -700 63 -59 91 -77 159 -104 116
-44 270 -75 360 -70 11 1 17 9 17 26 0 19 -6 26 -27 30 -174 32 -299 82 -407
160 -205 148 -337 349 -410 622 -17 64 -28 89 -41 91 -15 4 -16 -2 -10 -55z"/>
<path d="M1035 1840 c-6 -9 35 -154 63 -226 87 -220 255 -406 457 -505 77 -38
213 -79 262 -79 22 0 23 3 18 48 -42 328 -273 615 -580 720 -75 26 -214 52
-220 42z"/>
<path d="M824 1834 c-8 -4 -8 -23 3 -72 43 -208 137 -391 277 -537 22 -23 19
-16 -13 32 -109 164 -191 390 -204 561 -1 17 -7 22 -27 21 -14 0 -30 -3 -36
-5z"/>
<path d="M753 1735 c13 -215 88 -427 201 -570 146 -184 374 -311 641 -355 39
-6 81 -13 93 -16 13 -3 21 -1 18 4 -3 5 -20 12 -37 16 -45 9 -187 77 -255 123
-33 22 -86 54 -119 73 -153 84 -294 225 -387 386 -62 107 -123 277 -141 392
-2 12 -7 25 -11 29 -5 5 -6 -32 -3 -82z"/>
<path d="M601 1765 c-340 -160 -541 -519 -498 -891 49 -422 407 -755 827 -769
253 -8 466 73 641 245 112 110 165 190 218 329 17 46 18 51 3 52 -10 0 -26 2
-37 4 -11 2 -45 6 -75 9 -218 23 -412 91 -569 198 -109 76 -248 237 -299 348
-47 103 -83 215 -96 295 -11 71 -16 113 -18 163 -1 28 -7 52 -13 52 -5 -1 -43
-16 -84 -35z m-45 -280 c21 -33 6 -72 -31 -81 -50 -13 -86 53 -49 90 24 24 61
20 80 -9z m-61 -170 c75 -74 -35 -185 -112 -113 -50 47 -12 138 57 138 19 0
40 -9 55 -25z m168 -149 c10 -8 17 -26 17 -44 0 -24 -6 -35 -27 -46 -59 -31
-111 36 -66 86 19 21 51 23 76 4z m44 -202 c15 -40 -24 -82 -64 -67 -18 7 -34
48 -27 67 14 36 77 36 91 0z m-287 -224 c0 -20 -17 -30 -37 -22 -16 5 -17 24
-2 39 16 16 39 5 39 -17z m627 -36 c15 -24 15 -29 2 -53 -28 -50 -101 -33
-101 24 0 55 68 75 99 29z m-499 -26 c18 -18 14 -28 -11 -28 -23 0 -47 17 -47
32 0 12 45 9 58 -4z m702 -68 c0 -9 -8 -24 -18 -33 -25 -22 -67 -2 -67 33 0
35 42 56 67 33 10 -9 18 -24 18 -33z m-597 -24 c8 -20 -8 -38 -29 -34 -22 4
-31 37 -13 48 15 10 36 3 42 -14z m-156 -9 c20 -14 -3 -49 -30 -45 -25 3 -34
32 -17 53 12 14 21 13 47 -8z m970 2 c28 -17 40 -72 23 -104 -37 -69 -146 -47
-154 31 -8 71 68 113 131 73z m-769 -121 c7 -7 12 -25 12 -40 0 -54 -79 -61
-93 -9 -11 44 50 80 81 49z m592 -58 c25 -25 25 -32 2 -60 -25 -31 -69 -21
-78 17 -5 20 -2 31 16 45 28 23 35 23 60 -2z m-452 -2 c-3 -7 -17 -15 -33 -16
-25 -3 -27 -2 -16 12 16 19 55 22 49 4z"/>
<path d="M1700 861 c30 -10 72 -21 93 -25 31 -6 37 -4 37 11 0 14 -8 18 -38
19 -20 0 -62 3 -92 7 l-55 6 55 -18z"/>
</g>
</svg>
